<?xml version="1.0" encoding="UTF-8" standalone="no"?>
<!-- Generator: Adobe Illustrator 16.0.0, SVG Export Plug-In . SVG Version: 6.00 Build 0)  -->

<svg
   xmlns:dc="http://purl.org/dc/elements/1.1/"
   xmlns:cc="http://creativecommons.org/ns#"
   xmlns:rdf="http://www.w3.org/1999/02/22-rdf-syntax-ns#"
   xmlns:svg="http://www.w3.org/2000/svg"
   xmlns="http://www.w3.org/2000/svg"
   xmlns:sodipodi="http://sodipodi.sourceforge.net/DTD/sodipodi-0.dtd"
   xmlns:inkscape="http://www.inkscape.org/namespaces/inkscape"
   version="1.1"
   id="Capa_1"
   x="0px"
   y="0px"
   width="353.459px"
   height="353.459px"
   viewBox="0 0 353.459 353.459"
   style="enable-background:new 0 0 353.459 353.459;"
   xml:space="preserve"
   sodipodi:docname="heart-shaped-balloon.svg"
   inkscape:version="0.92.3 (unknown)"><metadata
   id="metadata5329"><rdf:RDF><cc:Work
       rdf:about=""><dc:format>image/svg+xml</dc:format><dc:type
         rdf:resource="http://purl.org/dc/dcmitype/StillImage" /></cc:Work></rdf:RDF></metadata><defs
   id="defs5327" /><sodipodi:namedview
   pagecolor="#ffffff"
   bordercolor="#666666"
   borderopacity="1"
   objecttolerance="10"
   gridtolerance="10"
   guidetolerance="10"
   inkscape:pageopacity="0"
   inkscape:pageshadow="2"
   inkscape:window-width="1920"
   inkscape:window-height="1016"
   id="namedview5325"
   showgrid="false"
   inkscape:zoom="0.66768703"
   inkscape:cx="176.72951"
   inkscape:cy="176.72951"
   inkscape:window-x="0"
   inkscape:window-y="27"
   inkscape:window-maximized="1"
   inkscape:current-layer="Capa_1" />
<g
   id="g5292"
   style="fill:#808080">
	<g
   id="g5290"
   style="fill:#808080">
		<path
   d="M256.938,313.815c9.792-6.732,14.076-23.868,6.12-32.437c-6.12-6.731-16.524,1.225-21.42,6.12    c-3.061,3.672-4.896,8.568-4.284,12.853c-0.612-0.612-1.224-0.612-1.836-1.225c-7.344-4.283-14.688-8.567-21.42-12.239    c4.284-2.448,7.344-5.509,9.18-9.181c3.061-6.12,3.061-15.3-3.672-18.972c-6.12-3.672-14.076,2.448-18.36,7.344    c-2.447,2.448-4.283,6.12-5.508,9.181c-5.508-4.284-11.016-9.793-15.3-15.301c6.732-1.224,12.852-5.508,17.748-9.792    c4.284-4.284,10.404-11.628,7.344-17.748c-3.06-6.731-12.24-4.896-17.748-3.06c-6.731,1.836-12.851,6.12-17.135,11.628    c-2.448-7.956-3.672-17.136-3.672-27.54c3.672,0,7.344,0.612,10.404,0c2.447,0,5.508-2.448,4.896-4.896    c-0.612-5.509-1.224-10.404-2.448-15.301c-0.611-2.447-1.224-4.896-2.447-6.731c64.872-19.584,148.104-69.768,116.279-146.88    c-23.256-55.08-99.144-50.184-117.503-1.224C158.406-2.589,91.086-9.321,64.158,32.295    c-41.004,63.036,37.944,136.476,94.248,152.388c-4.896,5.508-7.956,12.239-10.404,18.972c-1.224,2.448,1.224,6.12,3.672,6.732    c3.672,0.611,7.344,1.836,11.016,1.836c-2.448,9.18-2.448,18.972-1.224,28.151c-3.672-3.06-7.956-5.508-12.852-4.896    c-4.896,0.611-9.792,4.896-10.404,10.403c-0.612,6.12,4.284,9.792,9.792,10.404c6.12,0.612,11.628-0.612,16.524-3.06    c3.672,9.792,9.18,18.972,17.135,26.928c-6.119,2.448-14.075,9.792-12.239,17.748s13.464,7.344,19.584,5.508    c4.283-1.836,8.567-4.896,11.016-8.567c9.792,6.119,20.196,11.016,29.988,16.523c-1.836,0.612-3.672,0.612-5.508,1.836    c-6.12,3.061-14.076,9.792-12.853,17.136c0.612,7.345,8.568,9.792,14.688,7.345c7.956-3.061,13.464-11.628,14.688-19.584    c12.24,7.956,23.256,17.748,29.988,33.048c2.448,4.896,9.18,1.224,8.568-3.672C275.298,333.399,267.342,322.383,256.938,313.815z     M152.898,250.779c-2.448,0-9.792,0-9.18-4.284c0.612-3.672,5.508-4.284,8.568-3.672c3.672,1.224,6.732,3.672,9.18,5.508    C159.018,249.556,155.958,250.779,152.898,250.779z M72.114,91.047c-9.18-29.376,1.836-62.424,33.66-71.604    c34.884-9.792,55.08,18.36,64.26,47.124c1.836,5.508,9.791,4.284,10.403-1.224l0,0l0,0c5.508-32.436,33.048-60.588,68.544-48.348    c33.048,11.016,41.616,50.184,30.601,79.56c-17.748,48.96-71.604,65.484-116.28,80.784c-0.612,0-1.836,0.612-2.448,1.225    C125.358,157.144,85.578,131.439,72.114,91.047z M159.63,201.207c1.224-3.672,2.448-7.956,4.284-11.628c0.612,0,1.836,0,2.448,0    c0.612,0,1.836-0.612,3.06-0.612c0.612,1.837,1.836,3.673,1.836,6.12c0.612,2.448,1.224,5.509,1.836,7.956    C168.198,202.432,163.914,201.819,159.63,201.207z M177.378,254.451c-1.836-3.06-3.06-5.508-4.284-8.568    c3.06-3.672,7.343-7.344,11.627-9.18s18.972-6.731,15.912,3.061c-1.225,4.283-7.956,9.18-11.628,11.016    C185.334,252.003,181.661,253.228,177.378,254.451z M188.394,294.231c-2.448,1.836-12.852,4.284-9.792-1.836    c1.224-3.061,5.508-5.508,9.18-6.732c1.836,1.836,3.672,3.061,5.508,4.284C191.453,291.783,190.229,293.619,188.394,294.231z     M201.857,278.932c0.612-2.448,1.836-5.509,3.672-7.956c2.448-3.061,6.732-7.956,11.017-6.12    c5.508,1.836,2.447,10.403-0.612,13.464c-2.448,2.448-5.508,3.672-8.568,4.284C205.529,281.379,203.693,280.155,201.857,278.932z     M225.726,327.279c-1.224,1.224-3.672,3.672-5.508,3.06c-3.061-1.224,0-4.896,1.224-6.119c2.448-3.673,6.732-5.509,11.017-6.732    C230.621,321.159,228.785,324.831,225.726,327.279z M245.922,305.247c-3.061-4.896-1.836-9.792,2.447-13.464    c3.673-3.672,10.404-7.344,11.017,0.612s-4.284,12.24-9.792,15.912C248.369,307.695,247.146,306.472,245.922,305.247    C245.922,305.859,245.922,305.247,245.922,305.247z"
   id="path5288"
   style="fill:#808080" />
	</g>
</g>
<g
   id="g5294"
   style="fill:#808080">
</g>
<g
   id="g5296">
</g>
<g
   id="g5298">
</g>
<g
   id="g5300">
</g>
<g
   id="g5302">
</g>
<g
   id="g5304">
</g>
<g
   id="g5306">
</g>
<g
   id="g5308">
</g>
<g
   id="g5310">
</g>
<g
   id="g5312">
</g>
<g
   id="g5314">
</g>
<g
   id="g5316">
</g>
<g
   id="g5318">
</g>
<g
   id="g5320">
</g>
<g
   id="g5322">
</g>
</svg>